<?xml version="1.0" encoding="UTF-8"?>
<!DOCTYPE svg PUBLIC "-//W3C//DTD SVG 1.1//EN" "http://www.w3.org/Graphics/SVG/1.1/DTD/svg11.dtd">
<!-- Creator: CorelDRAW -->
<svg xmlns="http://www.w3.org/2000/svg" xml:space="preserve" width="827px" height="602px" style="shape-rendering:geometricPrecision; text-rendering:geometricPrecision; image-rendering:optimizeQuality; fill-rule:evenodd; clip-rule:evenodd"
viewBox="0 0 827 602.529"
 xmlns:xlink="http://www.w3.org/1999/xlink">
 <defs>
  <style type="text/css">
   <![CDATA[
    .str0 {stroke:#724530;stroke-width:47.2571;stroke-linejoin:round}
    .fil1 {fill:#C9B693}
    .fil0 {fill:#ECE8D8}
    .fil2 {fill:#F0CE49}
   ]]>
  </style>
 </defs>
 <g id="Camada_x0020_1">
  <metadata id="CorelCorpID_0Corel-Layer"/>
  <path class="fil0 str0" d="M147.511 538.967l198.081 -28.8966c54.6895,-7.97937 104.229,21.1204 110.628,64.9798l0 0 -61.7993 -423.619c-6.39862,-43.8605 -55.9383,-72.9591 -110.628,-64.9809l-198.081 28.8977c-36.4601,5.31879 -62.5673,33.3446 -58.3023,62.5838l46.3498 317.716c4.26614,29.2392 37.2918,48.6382 73.7519,43.3194l0 0z"/>
  <path class="fil0 str0" d="M741.753 452.276l-198.081 28.8977c-54.6895,7.97701 -93.8515,50.017 -87.4529,93.8763l0 0 -61.7993 -423.619c-6.39862,-43.8605 32.7634,-85.8993 87.4529,-93.8775l198.081 -28.8966c36.4589,-5.31879 69.4857,14.0803 73.7519,43.3206l46.3486 317.714c4.26614,29.2392 -21.8423,57.265 -58.3011,62.5838l0 0z"/>
  <path class="fil1" d="M302.139 212.213l-165.068 24.0799c-13.6715,1.99425 -26.0564,-5.2798 -27.6561,-16.2446 -1.59965,-10.9648 8.19084,-21.4748 21.8635,-23.4691l165.067 -24.0811c13.6727,-1.99425 26.0576,5.2798 27.6572,16.2446 1.59965,10.9648 -8.19084,21.4748 -21.8635,23.4703l0 0z"/>
  <path class="fil1" d="M317.588 318.117l-165.067 24.0811c-13.6727,1.99425 -26.0576,-5.28099 -27.6572,-16.2458 -1.59965,-10.9648 8.19084,-21.4748 21.8635,-23.4691l165.067 -24.0811c13.6727,-1.99425 26.0576,5.28099 27.6572,16.2458 1.59965,10.9648 -8.19084,21.4748 -21.8635,23.4691l0 0z"/>
  <path class="fil1" d="M333.038 424.022l-165.067 24.0811c-13.6715,1.99425 -26.0564,-5.28099 -27.6561,-16.2458 -1.59965,-10.9648 8.19084,-21.4748 21.8623,-23.4691l165.067 -24.0799c13.6727,-1.99543 26.0576,5.2798 27.6572,16.2446 1.59965,10.9648 -8.19084,21.4748 -21.8623,23.4691l-0.00118143 0z"/>
  <path class="fil1" d="M665.286 159.235l-165.067 24.0799c-13.6727,1.99543 -26.0576,-5.2798 -27.6572,-16.2446 -1.59965,-10.9648 8.19084,-21.4748 21.8635,-23.4691l165.067 -24.0811c13.6727,-1.99425 26.0576,5.2798 27.6572,16.2446 1.59965,10.966 -8.19084,21.4748 -21.8635,23.4703z"/>
  <path class="fil1" d="M680.736 265.14l-165.067 24.0811c-13.6727,1.99425 -26.0576,-5.28099 -27.6572,-16.2458 -1.59965,-10.9648 8.19084,-21.4748 21.8635,-23.4691l165.067 -24.0811c13.6727,-1.99425 26.0576,5.28099 27.6572,16.2458 1.59965,10.9648 -8.19084,21.4748 -21.8635,23.4691z"/>
  <path class="fil1" d="M696.186 371.044l-165.068 24.0811c-13.6715,1.99425 -26.0564,-5.28099 -27.6561,-16.2458 -1.59965,-10.9648 8.19084,-21.4736 21.8623,-23.4691l165.068 -24.0799c13.6715,-1.99543 26.0564,5.2798 27.6561,16.2446 1.59965,10.9648 -8.19084,21.4748 -21.8623,23.4691l0 0z"/>
  <path class="fil2" d="M519.383 456.002l15.3798 93.1037 29.2604 -46.4786 42.3188 32.5661 -14.8104 -89.6598c-3.97078,-3.17922 -49.6105,2.2837 -72.1487,10.4686z"/>
 </g>
</svg>
